<svg id="Capa_1" enable-background="new 0 0 510 510" height="512" viewBox="0 0 510 510" width="512" xmlns="http://www.w3.org/2000/svg"><path d="m357.79 390.72-.01 85.021c0 9.46-3.83 18.02-10.03 24.22s-14.77 10.039-24.23 10.039c-14.6 0-27.05-9.13-31.99-22-.36-.93-1.27-1.53-2.27-1.53s-1.91.6-2.27 1.53c-2.47 6.44-6.81 11.94-12.37 15.83s-12.32 6.17-19.62 6.17c-14.6 0-27.06-9.13-31.99-22-.36-.93-1.27-1.53-2.27-1.53s-1.91.6-2.27 1.53c-2.47 6.44-6.82 11.94-12.37 15.83-5.56 3.89-12.32 6.17-19.62 6.17-18.93 0-34.26-15.34-34.26-34.26 0-2.07-.01-82.15-.01-84.97 0-14 11.35-25.35 25.36-25.35l77.43-18.09 77.43 18.09c13.99 0 25.33 11.32 25.36 25.3z" fill="#676e74"/><path d="m357.79 390.72-.01 85.021c0 9.46-3.83 18.02-10.03 24.22s-14.77 10.039-24.23 10.039c-14.6 0-27.05-9.13-31.99-22-.36-.93-1.27-1.53-2.27-1.53s-1.91.6-2.27 1.53c-2.47 6.44-6.81 11.94-12.37 15.83s-12.32 6.17-19.62 6.17v-162.67l77.43 18.09c13.99 0 25.33 11.32 25.36 25.3z" fill="#292929"/><path d="m295.41 21.37v74.37h-80.82v-74.37c0-11.8 9.57-21.37 21.37-21.37h38.08c11.8 0 21.37 9.57 21.37 21.37z" fill="#ff5e95"/><path d="m295.41 21.37v74.37h-40.41v-95.74h19.04c11.8 0 21.37 9.57 21.37 21.37z" fill="#ff0059"/><path d="m357.79 148.9v33.49c0 16.07-13.04 29.1-29.11 29.1l-73.68 25.18-73.68-25.18c-16.07 0-29.11-13.03-29.11-29.1v-33.49c0-2.78.15-5.53.43-8.24 4.11-39.79 37.75-70.81 78.63-70.81h47.46c40.88 0 74.52 31.02 78.63 70.81.28 2.71.43 5.46.43 8.24z" fill="#f4f1f4"/><path d="m357.79 148.9v33.49c0 16.07-13.04 29.1-29.11 29.1l-73.68 25.18v-166.82h23.73c40.88 0 74.52 31.02 78.63 70.81.28 2.71.43 5.46.43 8.24z" fill="#d8d2d7"/><path d="m357.79 148.9v33.49c0 16.07-13.04 29.1-29.11 29.1l-73.68 25.18-73.68-25.18c-16.07 0-29.11-13.03-29.11-29.1v-33.49c0-2.78.15-5.53.43-8.24h204.72c.28 2.71.43 5.46.43 8.24z" fill="#676e74"/><path d="m357.79 148.9v33.49c0 16.07-13.04 29.1-29.11 29.1l-73.68 25.18v-96.01h102.36c.28 2.71.43 5.46.43 8.24z" fill="#292929"/><path d="m357.78 236.85v103.22c0 14-11.35 25.35-25.35 25.35h-154.86c-14 0-25.35-11.35-25.35-25.35v-103.22c0-14.01 11.35-25.36 25.35-25.36h154.86c14 0 25.35 11.35 25.35 25.36z" fill="#ff5e95"/><path d="m357.78 236.85v103.22c0 14-11.35 25.35-25.35 25.35h-77.43v-153.93h77.43c14 0 25.35 11.35 25.35 25.36z" fill="#ff0059"/><path d="m298.31 288.46c0 8.28-6.71 15-15 15h-56.62c-8.29 0-15-6.72-15-15 0-8.29 6.71-15 15-15h56.62c8.29 0 15 6.71 15 15z" fill="#f4f1f4"/><path d="m298.31 288.46c0 8.28-6.71 15-15 15h-28.31v-30h28.31c8.29 0 15 6.71 15 15z" fill="#d8d2d7"/></svg>