<svg id="Guide" height="512" viewBox="0 0 512 512" width="512" xmlns="http://www.w3.org/2000/svg"><path d="m351.885 183.244-19.64-19.63-12.08-12.08 47.22-132.96 4.17 38.7 38.69 4.16 4.17 38.71 38.71 4.16 4.17 38.71 38.7 4.17-132.95 47.22z" fill="#f8ec7d"/><circle cx="253.72" cy="260.854" fill="#6fe3ff" r="121.26"/><path d="m175.695 358.594 11.58 11.58-38.5 123.25-5.44-38.55-38.83-2.89-5.44-38.55-38.82-2.89-5.43-38.54-38.82-2.89 128.41-41.81 7.87 7.87z" fill="#f8ec7d"/><g fill="#63316d"><path d="m222.546 188.5a41.215 41.215 0 0 0 -41.17 41.169 6 6 0 0 0 12 0 29.2 29.2 0 0 1 29.17-29.169 6 6 0 0 0 0-12z"/><path d="m496.637 141.217-33.893-3.651-3.652-33.9a6 6 0 0 0 -5.325-5.323l-33.9-3.644-3.652-33.9a6 6 0 0 0 -5.325-5.324l-33.89-3.65-3.652-33.894a6 6 0 0 0 -11.62-1.365l-47.075 132.562a127.262 127.262 0 0 0 -172.661 172.651l-127.855 41.63a6 6 0 0 0 1.413 11.691l34 2.532 4.75 33.749a6 6 0 0 0 5.5 5.146l34 2.531 4.764 33.765a6 6 0 0 0 5.5 5.144l34.01 2.532 4.764 33.762a6 6 0 0 0 5.454 5.143c.164.013.328.019.49.019a6 6 0 0 0 5.725-4.21l38.305-122.627a127.26 127.26 0 0 0 172.634-172.667l132.554-47.081a6 6 0 0 0 -1.366-11.621zm-345.644 324.983-1.716-12.164a6 6 0 0 0 -5.5-5.146l-34.01-2.531-4.764-33.765a6 6 0 0 0 -5.5-5.144l-34-2.531-4.754-33.752a6 6 0 0 0 -5.5-5.147l-8.452-.629 95.956-31.243.277.277-31.079 22.358a6 6 0 0 0 7.007 9.742l32.67-23.5 3.8 3.8-15.438 18.034a6 6 0 0 0 9.111 7.809l14.852-17.331 4.306 4.305-13.454 24.318a6 6 0 1 0 10.5 5.808l11.782-21.3 3.379 3.378zm184.23-123.85a115.2 115.2 0 1 1 0-162.994 114.893 114.893 0 0 1 0 162.994zm29.385-154.868-3.015-3.014 27.27-16.152a6 6 0 1 0 -6.115-10.324l-29.916 17.718-2.666-2.665 18.291-17.53a6 6 0 0 0 -8.3-8.664l-18.477 17.708-1.68-1.68 25.859-38.079a6 6 0 0 0 -9.928-6.743l-24.574 36.189-4.269-4.27 37.15-104.6 1.352 12.551a6 6 0 0 0 5.324 5.323l33.886 3.632 3.652 33.9a6 6 0 0 0 5.324 5.323l33.9 3.644 3.652 33.9a6 6 0 0 0 5.323 5.323l12.552 1.353z"/></g></svg>