<svg viewBox="-36 0 512 512" xmlns="http://www.w3.org/2000/svg"><path d="m421.003906 465.457031s11.375-126.234375 11.375-209.457031-11.375-209.457031-11.375-209.457031l4.457032-28.300781c.394531-2.507813-1.605469-4.730469-4.140626-4.621094-.472656.019531-.964843.03125-1.476562.03125-12.339844 0-12.339844-6.152344-24.683594-6.152344-12.339844 0-12.339844 6.152344-24.683594 6.152344-12.339843 0-12.339843-6.152344-24.679687-6.152344s-12.339844 6.152344-24.679687 6.152344c-12.339844 0-12.339844-6.152344-24.679688-6.152344-12.335938 0-12.335938 6.152344-24.675781 6.152344-12.335938 0-12.335938-6.152344-24.675781-6.152344-12.335938 0-12.335938 6.152344-24.671876 6.152344-12.339843 0-12.339843-6.152344-24.679687-6.152344s-12.339844 6.152344-24.675781 6.152344c-12.339844 0-12.339844-6.152344-24.675782-6.152344-12.339843 0-12.339843 6.152344-24.679687 6.152344-12.335937 0-12.335937-6.152344-24.675781-6.152344-12.335938 0-12.335938 6.152344-24.675782 6.152344-12.339843 0-12.339843-6.152344-24.675781-6.152344-12.339843 0-12.339843 6.152344-24.679687 6.152344-2.308594 0-4.1875-.214844-5.792969-.566406-2.75-.601563-5.242187 1.742187-4.8125 4.523437l4.484375 28.933594s-11.375 126.230469-11.375 209.457031c0 83.222656 11.375 209.457031 11.375 209.457031l-4.484375 28.933594c-.429687 2.78125 2.0625 5.121094 4.8125 4.519531 1.605469-.347656 3.484375-.566406 5.792969-.566406 12.339844 0 12.339844 6.152344 24.679687 6.152344 12.335938 0 12.335938-6.152344 24.675781-6.152344 12.339844 0 12.339844 6.152344 24.675782 6.152344 12.339844 0 12.339844-6.152344 24.675781-6.152344 12.339844 0 12.339844 6.152344 24.679687 6.152344 12.335938 0 12.335938-6.152344 24.675782-6.152344s12.339844 6.152344 24.675781 6.152344c12.339844 0 12.339844-6.152344 24.679687-6.152344 12.335938 0 12.335938 6.152344 24.671876 6.152344 12.339843 0 12.339843-6.152344 24.675781-6.152344 12.339843 0 12.339843 6.152344 24.675781 6.152344 12.339844 0 12.339844-6.152344 24.679688-6.152344 12.339843 0 12.339843 6.152344 24.679687 6.152344s12.339844-6.152344 24.679687-6.152344c12.339844 0 12.339844 6.152344 24.683594 6.152344 12.339844 0 12.339844-6.152344 24.683594-6.152344.511719 0 1.003906.011719 1.476562.03125 2.535157.109375 4.535157-2.113281 4.140626-4.617188zm0 0" fill="#e88c38"/><path d="m421.003906 465.457031s11.375-126.234375 11.375-209.457031-11.375-209.457031-11.375-209.457031l4.457032-28.300781c.394531-2.507813-1.605469-4.730469-4.140626-4.621094-.472656.019531-.964843.03125-1.476562.03125-12.339844 0-12.339844-6.152344-24.683594-6.152344-12.339844 0-12.339844 6.152344-24.683594 6.152344-.417968 0-.824218-.007813-1.214843-.019532l-5.921875 32.910157s11.371094 126.234375 11.371094 209.457031-11.371094 209.457031-11.371094 209.457031l5.648437 32.925781c.476563-.023437.96875-.035156 1.488281-.035156 12.339844 0 12.339844 6.152344 24.683594 6.152344 12.339844 0 12.339844-6.152344 24.683594-6.152344.511719 0 1.003906.007813 1.476562.03125 2.535157.109375 4.535157-2.113281 4.140626-4.621094zm0 0" fill="#d38231"/><path d="m336.847656 256c0 64.566406-52.339844 116.910156-116.910156 116.910156-64.566406 0-116.90625-52.34375-116.90625-116.910156s52.339844-116.910156 116.90625-116.910156c64.570312 0 116.910156 52.34375 116.910156 116.910156zm0 0" fill="#f3e8d7"/><path d="m209.320312 225.085938c-38.550781 0-70.375 25.554687-75.128906 58.617187-.5625 3.910156 3.074219 7.128906 6.875 6.050781 11.378906-3.234375 34.652344-7.527344 62.332032.226563 72.246093 20.238281 81.664062 2.3125 81.664062 2.3125 0-37.117188-33.910156-67.207031-75.742188-67.207031zm0 0" fill="#efa335"/><path d="m219.9375 139.089844c-9.949219 0-19.609375 1.25-28.832031 3.589844 50.625 12.839843 88.078125 58.703124 88.078125 113.320312s-37.453125 100.480469-88.078125 113.320312c9.222656 2.339844 18.882812 3.589844 28.832031 3.589844 64.570312 0 116.910156-52.34375 116.910156-116.910156s-52.339844-116.910156-116.910156-116.910156zm0 0" fill="#f4d5ba"/><path d="m187.0625 285.445312 69.121094 14.167969 28.878906-7.320312c34.132812-11.503907 26.65625-69.539063-27.214844-79.0625-33.652344-5.949219-80.714844 19.457031-90.3125 38.59375-6.550781 13.0625 19.527344 15.363281 19.527344 33.621093zm0 0" fill="#fd8f31"/><path d="m209.320312 225.085938c-38.550781 0-70.375 25.554687-75.128906 58.617187-.5625 3.910156 3.074219 7.128906 6.875 6.050781 11.378906-3.234375 34.652344-7.527344 62.332032.226563 72.246093 20.238281 81.664062 2.3125 81.664062 2.3125 0-37.117188-33.910156-67.207031-75.742188-67.207031zm0 0" fill="#efa335"/><path d="m419.84375 13.652344c-12.34375 0-12.34375-6.152344-24.6875-6.152344-12.339844 0-12.339844 6.152344-24.679688 6.152344-12.339843 0-12.339843-6.152344-24.679687-6.152344s-12.339844 6.152344-24.679687 6.152344c-12.339844 0-12.339844-6.152344-24.679688-6.152344s-12.339844 6.152344-24.675781 6.152344c-12.339844 0-12.339844-6.152344-24.675781-6.152344-12.339844 0-12.339844 6.152344-24.675782 6.152344-12.339844 0-12.339844-6.152344-24.679687-6.152344-12.335938 0-12.335938 6.152344-24.675781 6.152344-12.335938 0-12.335938-6.152344-24.675782-6.152344s-12.339844 6.152344-24.675781 6.152344c-12.339844 0-12.339844-6.152344-24.679687-6.152344-12.335938 0-12.335938 6.152344-24.675782 6.152344-12.335937 0-12.335937-6.152344-24.675781-6.152344s-12.339844 6.152344-24.675781 6.152344c-2.3125 0-4.1875-.214844-5.796875-.566406-2.75-.601563-5.242188 1.742187-4.808594 4.523437l4.480469 28.933594h402.132812l4.457032-28.300781c.394531-2.507813-1.605469-4.730469-4.140626-4.621094-.472656.019531-.964843.03125-1.476562.03125zm0 0" fill="#efa335"/><path d="m385.445312 9.335938c-.179687.074218-.359374.15625-.539062.234374-.382812.171876-.757812.351563-1.125.53125-.421875.203126-.835938.410157-1.25.617188-.164062.082031-.328125.164062-.492188.242188-.5.246093-1.003906.488281-1.523437.71875-.050781.023437-.101563.042968-.152344.066406-.292969.125-.589843.25-.894531.367187-.855469.335938-1.78125.636719-2.816406.882813-.210938.050781-.425782.097656-.644532.144531-1.550781.316406-3.34375.511719-5.53125.511719-.417968 0-.824218-.007813-1.214843-.023438l-5.921875 32.914063h57.664062l2.417969-15.359375 2.039063-12.941406c.296874-1.882813-.753907-3.601563-2.367188-4.296876-.269531-.117187-.554688-.207031-.851562-.261718-.296876-.054688-.605469-.078125-.921876-.0625-.472656.019531-.964843.03125-1.476562.03125-2.238281 0-4.066406-.203125-5.640625-.535156-.117187-.023438-.234375-.050782-.347656-.078126-1.15625-.261718-2.175781-.597656-3.113281-.96875-.175782-.070312-.347657-.140624-.519532-.210937-.234375-.101563-.464844-.203125-.691406-.304687-.390625-.175782-.773438-.359376-1.152344-.542969-.195312-.097657-.394531-.195313-.589844-.292969-.382812-.191406-.765624-.382812-1.152343-.570312-.398438-.195313-.804688-.390626-1.222657-.578126-.175781-.082031-.359374-.160156-.539062-.238281-.246094-.105469-.496094-.207031-.753906-.304687-.785156-.308594-1.628906-.585938-2.5625-.816406-.402344-.101563-.820313-.195313-1.257813-.277344-1.460937-.269532-3.136719-.433594-5.140625-.433594-1.15625 0-2.207031.054688-3.167968.152344-.640626.066406-1.238282.148437-1.808594.25-.566406.101562-1.101563.21875-1.609375.351562-.253907.066406-.5.136719-.742188.207032-.578125.175781-1.117187.363281-1.632812.566406-.257813.101562-.507813.203125-.753907.308594zm0 0" fill="#fd8f31"/><path d="m419.84375 498.347656c-12.34375 0-12.34375 6.152344-24.6875 6.152344-12.339844 0-12.339844-6.152344-24.679688-6.152344-12.339843 0-12.339843 6.152344-24.679687 6.152344s-12.339844-6.152344-24.679687-6.152344c-12.339844 0-12.339844 6.152344-24.679688 6.152344s-12.339844-6.152344-24.675781-6.152344c-12.339844 0-12.339844 6.152344-24.675781 6.152344-12.339844 0-12.339844-6.152344-24.675782-6.152344-12.339844 0-12.339844 6.152344-24.679687 6.152344-12.335938 0-12.335938-6.152344-24.675781-6.152344-12.335938 0-12.335938 6.152344-24.675782 6.152344s-12.339844-6.152344-24.675781-6.152344c-12.339844 0-12.339844 6.152344-24.679687 6.152344-12.335938 0-12.335938-6.152344-24.675782-6.152344-12.335937 0-12.335937 6.152344-24.675781 6.152344s-12.339844-6.152344-24.675781-6.152344c-2.3125 0-4.1875.214844-5.796875.566406-2.75.601563-5.242188-1.742187-4.808594-4.523437l4.480469-28.933594h402.132812l4.457032 28.300781c.394531 2.507813-1.605469 4.730469-4.140626 4.621094-.472656-.019531-.964843-.03125-1.476562-.03125zm0 0" fill="#efa335"/><path d="m425.460938 493.757812-2.226563-14.152343-2.230469-14.148438h-57.664062l5.648437 32.925781c.476563-.023437.96875-.039062 1.488281-.039062 9.257813 0 11.570313 3.460938 17.355469 5.191406 1.203125.363282 2.5625.648438 4.160157.8125.960937.097656 2.011718.148438 3.167968.148438 12.34375 0 12.34375-6.152344 24.683594-6.152344.515625 0 1.007812.011719 1.476562.03125.320313.015625.625-.007812.921876-.0625.59375-.109375 1.140624-.351562 1.609374-.6875 1.167969-.84375 1.855469-2.300781 1.609376-3.867188zm0 0" fill="#fd8f31"/><path d="m428.558594 465.203125c1.03125-11.699219 11.320312-130.34375 11.320312-209.203125s-10.289062-197.503906-11.320312-209.203125l4.3125-27.390625c.535156-3.421875-.476563-6.867188-2.78125-9.445312-2.3125-2.585938-5.613282-3.980469-9.085938-3.832032-.371094.015625-.757812.023438-1.160156.023438-4.40625 0-6.230469-.910156-8.996094-2.289063-3.453125-1.71875-7.75-3.863281-15.691406-3.863281-7.933594 0-12.230469 2.144531-15.683594 3.863281-2.765625 1.378907-4.589844 2.289063-8.996094 2.289063-4.402343 0-6.230468-.910156-8.992187-2.289063-3.453125-1.71875-7.75-3.863281-15.6875-3.863281-7.933594 0-12.230469 2.144531-15.6875 3.863281-2.761719 1.378907-4.589844 2.289063-8.992187 2.289063-4.402344 0-6.230469-.910156-8.992188-2.289063-3.453125-1.71875-7.75-3.863281-15.6875-3.863281-7.933594 0-12.230469 2.144531-15.683594 3.863281-2.765625 1.378907-4.589844 2.289063-8.992187 2.289063-4.402344 0-6.230469-.910156-8.992188-2.289063-3.453125-1.71875-7.75-3.863281-15.683593-3.863281-7.9375 0-12.230469 2.144531-15.6875 3.863281-2.761719 1.378907-4.585938 2.289063-8.988282 2.289063s-6.226562-.910156-8.992187-2.289063c-3.453125-1.71875-7.75-3.863281-15.683594-3.863281-7.9375 0-12.234375 2.144531-15.6875 3.863281-2.765625 1.378907-4.589844 2.289063-8.992187 2.289063-4.402344 0-6.226563-.910156-8.992188-2.289063-3.453125-1.71875-7.75-3.863281-15.683594-3.863281s-12.230468 2.144531-15.683594 3.863281c-2.765624 1.378907-4.589843 2.289063-8.992187 2.289063s-6.230469-.910156-8.992187-2.289063c-3.453126-1.71875-7.75-3.863281-15.6875-3.863281-7.933594 0-12.230469 2.144531-15.683594 3.863281-2.765625 1.378907-4.589844 2.289063-8.992188 2.289063s-6.226562-.910156-8.992187-2.289063c-3.449219-1.71875-7.75-3.863281-15.683594-3.863281s-12.234375 2.144531-15.683594 3.863281c-2.765625 1.378907-4.589843 2.289063-8.992187 2.289063-1.609375 0-2.980469-.128906-4.195313-.394532-3.707031-.808593-7.574219.257813-10.335937 2.859376-2.765625 2.601562-4.066406 6.390624-3.484375 10.140624l4.339843 28.03125c-1.027343 11.648438-11.320312 130.332032-11.320312 209.210938s10.292969 197.5625 11.320312 209.210938l-4.339843 28.027343c-.582031 3.753907.71875 7.542969 3.480469 10.144531 2.765624 2.601563 6.628906 3.667969 10.339843 2.859376 1.214844-.265626 2.585938-.394532 4.195313-.394532 4.402344 0 6.226562.910156 8.988281 2.289063 3.453125 1.71875 7.75 3.863281 15.6875 3.863281s12.234375-2.144531 15.6875-3.863281c2.761719-1.378907 4.585937-2.289063 8.992187-2.289063 4.402344 0 6.226563.910156 8.988282 2.285156 3.453125 1.722657 7.75 3.867188 15.6875 3.867188 7.933594 0 12.230468-2.144531 15.683594-3.867188 2.765624-1.375 4.589843-2.289062 8.992187-2.289062s6.230469.910156 8.992187 2.289062c3.453126 1.722657 7.75 3.863282 15.683594 3.863282 7.9375 0 12.234375-2.140625 15.6875-3.863282 2.761719-1.378906 4.589844-2.289062 8.992188-2.289062s6.226562.910156 8.988281 2.289062c3.453125 1.722657 7.753906 3.863282 15.6875 3.863282 7.9375 0 12.234375-2.140625 15.6875-3.863282 2.761719-1.378906 4.589844-2.289062 8.992187-2.289062 4.402344 0 6.226563.910156 8.988282 2.289062 3.453125 1.71875 7.75 3.863282 15.683594 3.863282 7.9375 0 12.234374-2.144532 15.6875-3.863282 2.761718-1.378906 4.585937-2.289062 8.992187-2.289062 4.398437 0 6.226563.910156 8.988281 2.285156 3.453125 1.722656 7.75 3.867188 15.6875 3.867188s12.234375-2.144532 15.6875-3.867188c2.761719-1.375 4.589844-2.285156 8.992188-2.285156s6.230468.910156 8.992187 2.289062c3.453125 1.71875 7.75 3.863282 15.6875 3.863282s12.234375-2.144532 15.6875-3.863282c2.765625-1.378906 4.589844-2.289062 8.992188-2.289062 4.40625 0 6.230469.910156 8.996093 2.289062 3.453126 1.71875 7.75 3.863282 15.683594 3.863282 7.941406 0 12.238282-2.144532 15.691406-3.863282 2.761719-1.378906 4.589844-2.289062 8.996094-2.289062.398438 0 .78125.007812 1.148438.023438 3.476562.167968 6.785156-1.246094 9.097656-3.832032 2.304688-2.582031 3.316406-6.023437 2.777344-9.445312zm-403.5625-444.050781c7.9375 0 12.230468-2.140625 15.683594-3.863282 2.765624-1.378906 4.589843-2.289062 8.992187-2.289062s6.230469.910156 8.992187 2.289062c3.453126 1.722657 7.75 3.863282 15.6875 3.863282 7.933594 0 12.230469-2.140625 15.683594-3.863282 2.765625-1.378906 4.589844-2.289062 8.992188-2.289062s6.226562.910156 8.992187 2.289062c3.449219 1.722657 7.75 3.863282 15.683594 3.863282 7.9375 0 12.234375-2.140625 15.6875-3.863282 2.761719-1.378906 4.585937-2.289062 8.988281-2.289062s6.230469.910156 8.992188 2.289062c3.453125 1.722657 7.75 3.863282 15.6875 3.863282 7.933594 0 12.230468-2.140625 15.683594-3.863282 2.765624-1.378906 4.589843-2.289062 8.992187-2.289062s6.230469.910156 8.992187 2.289062c3.453126 1.722657 7.75 3.863282 15.6875 3.863282 7.933594 0 12.230469-2.140625 15.683594-3.863282 2.761719-1.378906 4.585938-2.289062 8.988282-2.289062 4.402343 0 6.226562.910156 8.992187 2.289062 3.449219 1.722657 7.75 3.863282 15.683594 3.863282 7.9375 0 12.234375-2.140625 15.6875-3.863282 2.761719-1.378906 4.585937-2.289062 8.988281-2.289062 4.40625 0 6.230469.910156 8.996094 2.289062 3.453125 1.722657 7.75 3.863282 15.683594 3.863282 7.9375 0 12.234374-2.140625 15.6875-3.863282 2.765624-1.378906 4.589843-2.289062 8.996093-2.289062 4.402344 0 6.226563.910156 8.992188 2.289062 3.453125 1.722657 7.75 3.863282 15.6875 3.863282 7.933593 0 12.234375-2.140625 15.6875-3.863282 2.761719-1.378906 4.585937-2.289062 8.988281-2.289062 4.40625 0 6.234375.910156 9 2.289062 3.082031 1.539063 6.839844 3.410157 13.265625 3.792969l-2.828125 17.960938h-389.292969l-2.78125-17.964844c.800781.050781 1.625.074219 2.476563.074219zm379.15625 473.558594c-2.761719 1.378906-4.589844 2.289062-8.996094 2.289062-4.402344 0-6.226562-.910156-8.992188-2.289062-3.453124-1.722657-7.75-3.863282-15.6875-3.863282s-12.234374 2.140625-15.6875 3.863282c-2.761718 1.378906-4.589843 2.289062-8.992187 2.289062s-6.230469-.910156-8.992187-2.289062c-3.453126-1.722657-7.75-3.863282-15.6875-3.863282s-12.234376 2.140625-15.6875 3.863282c-2.765626 1.378906-4.589844 2.289062-8.992188 2.289062s-6.230469-.910156-8.992188-2.289062c-3.453124-1.722657-7.75-3.863282-15.683593-3.863282-7.9375 0-12.234375 2.140625-15.6875 3.863282-2.765625 1.378906-4.589844 2.289062-8.992188 2.289062-4.402343 0-6.226562-.910156-8.988281-2.289062-3.453125-1.722657-7.75-3.863282-15.683594-3.863282-7.9375 0-12.234375 2.140625-15.6875 3.863282-2.761718 1.378906-4.589844 2.289062-8.992187 2.289062-4.402344 0-6.226563-.910156-8.992188-2.289062-3.453125-1.722657-7.75-3.863282-15.683593-3.863282-7.9375 0-12.234376 2.140625-15.6875 3.863282-2.761719 1.378906-4.589844 2.289062-8.992188 2.289062s-6.226562-.910156-8.988281-2.289062c-3.453125-1.722657-7.75-3.863282-15.6875-3.863282-7.933594 0-12.230469 2.140625-15.683594 3.863282-2.765625 1.378906-4.589844 2.289062-8.992187 2.289062-4.402344 0-6.230469-.910156-8.992188-2.285156-3.453125-1.722656-7.75-3.867188-15.683594-3.867188-7.9375 0-12.234375 2.144532-15.6875 3.867188-2.761718 1.375-4.585937 2.285156-8.988281 2.285156s-6.226563-.910156-8.988281-2.289062c-3.453125-1.722657-7.75-3.863282-15.6875-3.863282-.851563 0-1.675782.023438-2.480469.074219l2.785156-17.964844h389.292969l2.828125 17.960938c-6.425781.382812-10.183594 2.253906-13.269531 3.792969zm9.976562-36.753907h-388.378906c-2.332031-27.347656-10.75-131.015625-10.75-201.957031s8.417969-174.609375 10.75-201.957031h388.378906c2.332032 27.347656 10.75 131.015625 10.75 201.957031s-8.417968 174.609375-10.75 201.957031zm0 0"/><path d="m302.003906 162.496094c-22.6875-19.929688-51.832031-30.90625-82.066406-30.90625-30.226562 0-59.371094 10.976562-82.0625 30.902344-22.476562 19.742187-37.097656 46.855468-41.171875 76.34375-.5625 4.105468 2.304687 7.890624 6.40625 8.457031 4.101563.5625 7.886719-2.300781 8.453125-6.402344 3.582031-25.921875 16.441406-49.761719 36.210938-67.125 19.949218-17.523437 45.578124-27.171875 72.164062-27.171875s52.21875 9.648438 72.167969 27.171875c19.773437 17.367187 32.632812 41.207031 36.207031 67.132813.519531 3.753906 3.734375 6.472656 7.421875 6.472656.339844 0 .6875-.019532 1.035156-.070313 4.101563-.566406 6.96875-4.351562 6.402344-8.453125-4.066406-29.492187-18.6875-56.609375-41.167969-76.351562zm0 0"/><path d="m336.542969 267.363281c-4.09375-.664062-7.9375 2.121094-8.597657 6.207031-4.09375 25.363282-17.140624 48.605469-36.738281 65.445313-19.808593 17.019531-45.117187 26.390625-71.269531 26.390625s-51.464844-9.371094-71.269531-26.394531c-19.601563-16.84375-32.648438-40.085938-36.738281-65.449219-.660157-4.089844-4.503907-6.871094-8.597657-6.210938-4.089843.660157-6.871093 4.511719-6.210937 8.601563 4.652344 28.851563 19.488281 55.289063 41.769531 74.4375 22.523437 19.355469 51.308594 30.019531 81.046875 30.019531s58.519531-10.660156 81.042969-30.015625c22.28125-19.148437 37.117187-45.582031 41.773437-74.433593.660156-4.089844-2.121094-7.9375-6.210937-8.597657zm0 0"/><path d="m143.117188 296.96875c10.648437-3.027344 32.375-7.019531 58.257812.230469 26.304688 7.371093 45.03125 9.921875 58.359375 9.921875 18.257813-.003906 26.375-4.789063 29.929687-8.546875 15.667969-6.335938 24.8125-21.757813 23.445313-39.957031-1.640625-21.8125-18.960937-46.585938-53.957031-52.773438-18.191406-3.214844-41.15625 1.433594-63.199219 12.726562-35.726563 5.230469-64.429687 31.015626-69.183594 64.0625-.628906 4.375.980469 8.722657 4.304688 11.628907 3.3125 2.894531 7.8125 3.90625 12.042969 2.707031zm113.425781-76.351562c19.503906 3.445312 39.9375 16.882812 41.609375 39.125.507812 6.777343-1.230469 14.636718-6.761719 20.132812-5.210937-27.820312-27.597656-50.476562-57.019531-58.828125 8.046875-1.398437 15.621094-1.589844 22.171875-.429687zm-56.867188 12.570312c.425781-.050781.851563-.097656 1.277344-.144531.492187-.050781.980469-.101563 1.472656-.144531.449219-.039063.894531-.078126 1.34375-.109376.539063-.035156 1.078125-.066406 1.621094-.09375.378906-.019531.757813-.042968 1.136719-.054687.925781-.035156 1.859375-.054687 2.796875-.054687 36.382812 0 66.207031 25.039062 68.140625 56.460937-1.28125.695313-3.578125 1.628906-7.40625 2.285156-9.625 1.652344-28.65625 1.503907-64.632813-8.574219-12.230469-3.425781-23.664062-4.640624-33.722656-4.640624-12.222656 0-22.417969 1.792968-29.550781 3.582031 5.199218-25.425781 28.679687-44.910157 57.523437-48.511719zm0 0"/></svg>