<svg xmlns="http://www.w3.org/2000/svg" width="353.657" height="440.915" viewBox="0 0 353.657 440.915">
  <g id="posicion" transform="translate(-47.2)">
    <g id="Grupo_1" data-name="Grupo 1" transform="translate(47.2)">
      <path id="Trazado_1" data-name="Trazado 1" d="M223.936,0C126.509,0,47.2,79.309,47.2,176.736a173.953,173.953,0,0,0,3.143,33.184c.092.647.462,2.588,1.2,5.916a174.059,174.059,0,0,0,11.832,34.848c19.042,44.831,60.915,113.7,152.8,187.458a12.517,12.517,0,0,0,15.714,0c91.788-73.763,133.754-142.627,152.8-187.458a172.1,172.1,0,0,0,11.832-34.848c.739-3.328,1.109-5.269,1.2-5.916a181.757,181.757,0,0,0,3.143-33.184C400.672,79.309,321.362,0,223.936,0ZM372.941,205.576c0,.185-.092.37-.092.555-.092.462-.37,1.849-.832,3.975v.185a146.743,146.743,0,0,1-10.26,30.134c-.092.092-.092.277-.185.37-17.285,40.949-55.184,103.435-137.636,171.559C141.484,344.228,103.585,281.742,86.3,240.793c-.092-.092-.092-.277-.185-.37a156.537,156.537,0,0,1-10.26-30.134V210.1c-.555-2.126-.739-3.513-.832-3.975,0-.185-.092-.37-.092-.647a150.951,150.951,0,0,1-2.773-28.84c0-83.654,68.125-151.778,151.778-151.778S375.714,92.99,375.714,176.643A150.482,150.482,0,0,1,372.941,205.576Z" transform="translate(-47.2)" fill="#fff"/>
      <path id="Trazado_2" data-name="Trazado 2" d="M229.216,71.9A112.216,112.216,0,1,0,341.432,184.116,112.391,112.391,0,0,0,229.216,71.9Zm0,199.475a87.259,87.259,0,1,1,87.259-87.259A87.36,87.36,0,0,1,229.216,271.375Z" transform="translate(-52.48 -5.439)" fill="#fff"/>
    </g>
  </g>
</svg>
