<svg id="Capa_1" enable-background="new 0 0 512.002 512.002" height="512" viewBox="0 0 512.002 512.002" width="512" xmlns="http://www.w3.org/2000/svg"><circle cx="320.13" cy="183.856" fill="#f6d190" r="96.194"/><circle cx="320.13" cy="183.856" fill="#ecbd83" r="64.129"/><circle cx="320.13" cy="183.856" fill="#f6d190" r="32.065"/><circle cx="191.872" cy="215.921" fill="#f6d190" r="96.194"/><circle cx="191.872" cy="215.921" fill="#ecbd83" r="64.129"/><path d="m94.874 256.001 16.33 241.026c.285 4.207 3.781 7.474 7.998 7.474h273.666c4.189 0 7.672-3.225 7.993-7.402l18.784-244.382z" fill="#f4dbb3"/><circle cx="256.001" cy="344.179" fill="#ff9a9f" r="88.177"/><path d="m111.204 497.027c.285 4.207 3.781 7.474 7.998 7.474h21.272l-.037-.542-8.995-132.759c-.724-10.683 8.045-19.063 18.753-19.006.074 0 .148.001.222.001h211.17c10.63 0 20.824-4.223 28.341-11.739l24.886-24.885 4.831-62.853-324.77 3.283z" fill="#eac89f"/><path d="m256.001 256.001c-48.7 0-88.177 39.478-88.177 88.177 0 2.706.166 5.372.405 8.016h175.545c.239-2.644.405-5.31.405-8.016-.001-48.698-39.479-88.177-88.178-88.177z" fill="#ff8086"/><path d="m361.586 328.147h-211.17c-4.252 0-8.33-1.689-11.337-4.696l-46.721-46.721c-3.007-3.007-4.696-7.084-4.696-11.337v-81.537h336.677v81.537c0 4.252-1.689 8.33-4.696 11.337l-46.721 46.721c-3.006 3.007-7.084 4.696-11.336 4.696z" fill="#f9eac7"/><path d="m495.322 325.101-64.069-144.155c-.004-.009-.008-.019-.012-.028l-.048-.108-.003.001c-1.168-2.624-3.793-4.455-6.85-4.455h-.789c-3.856-53.689-48.766-96.193-103.421-96.193-33.135 0-63.988 15.709-83.525 42.253-13.689-6.559-28.909-10.188-44.733-10.188-1.246 0-2.487.029-3.725.073l-29.12-106.773c-1.089-3.996-5.215-6.351-9.209-5.262-3.997 1.09-6.353 5.213-5.263 9.209l28.498 104.494c-15.881 2.939-30.692 9.528-43.36 19.016l-83.831-129.558c-2.25-3.478-6.895-4.471-10.371-2.222-3.478 2.25-4.473 6.894-2.223 10.371l84.992 131.352c-9.376 9.433-17.002 20.722-22.247 33.428h-8.352c-3.057 0-5.682 1.832-6.85 4.455l-.003-.001-.048.108c-.004.009-.008.019-.012.028l-64.069 144.155c-1.682 3.785.022 8.217 3.808 9.899.99.44 2.024.648 3.042.648 2.874 0 5.616-1.661 6.858-4.456l49.775-111.995v52.836c0 1.989.79 3.897 2.197 5.303l5.182 5.182 16.691 222.543c.293 3.914 3.555 6.939 7.479 6.939h288.581c3.924 0 7.186-3.025 7.479-6.939l13.226-176.354c.31-4.13-2.788-7.73-6.918-8.04-4.134-.311-7.73 2.788-8.04 6.918l-12.706 169.414h-274.664l-14.866-198.221 34.67 34.669c1.406 1.407 3.314 2.197 5.303 2.197h192.438c.297 2.83.464 5.68.464 8.532 0 44.486-36.191 80.677-80.677 80.677-38.952 0-72.322-27.757-79.347-66-.748-4.074-4.662-6.769-8.731-6.021-4.074.748-6.77 4.657-6.021 8.731 8.333 45.364 47.908 78.29 94.1 78.29 52.757 0 95.677-42.921 95.677-95.677 0-2.848-.131-5.698-.382-8.532h16.93c1.989 0 3.897-.79 5.303-2.197l56.113-56.113c1.407-1.406 2.197-3.314 2.197-5.303v-52.836l49.775 111.995c1.242 2.795 3.984 4.456 6.858 4.456 1.018 0 2.052-.208 3.042-.648 3.785-1.68 5.489-6.112 3.807-9.897zm-175.192-229.938c46.379 0 84.553 35.785 88.374 81.193h-17.157c-1.439-13.57-6.734-26.582-15.294-37.264-2.59-3.232-7.311-3.753-10.543-1.162-3.232 2.59-3.752 7.311-1.162 10.543 6.54 8.16 10.592 17.686 11.923 27.884h-17.298c-3.516-18.24-19.591-32.064-38.842-32.064-16.202 0-30.154 9.794-36.265 23.769-3-5.759-6.509-11.172-10.463-16.191 10.505-15.298 28.03-24.642 46.727-24.642 7.351 0 14.498 1.385 21.244 4.117 3.84 1.555 8.212-.297 9.767-4.136s-.297-8.212-4.136-9.767c-8.543-3.46-17.585-5.215-26.875-5.215-22.479 0-43.617 10.675-57.062 28.343-4.152-3.915-8.617-7.477-13.345-10.655 16.758-21.865 42.649-34.753 70.407-34.753zm23.389 81.193h-46.779c3.178-9.887 12.46-17.064 23.389-17.064s20.212 7.177 23.39 17.064zm-72.248 0h-19.688c-12.276-18.48-32.574-30.305-54.661-31.88l-4.702-17.242c33.737.133 64.252 19.453 79.051 49.122zm-81.203 0h-38.686c9.073-9.252 21.141-15.216 34.132-16.696zm15.548 0-4.442-16.288c11.863 1.991 22.802 7.74 31.186 16.288zm-28.6-47.86 4.517 16.562c-20.011 2.943-38.083 14.304-49.373 31.299h-19.687c12.641-25.344 36.753-43.129 64.543-47.861zm239.824 140.431-51.72 51.72h-218.238l-51.72-51.72v-77.571h321.678z"/></svg>